<?xml version="1.0" ?><svg style="enable-background:new 0 0 64 64;" version="1.1" viewBox="0 0 64 64" xml:space="preserve" xmlns="http://www.w3.org/2000/svg" xmlns:xlink="http://www.w3.org/1999/xlink"><style type="text/css">
	.st0{fill:#0072FF;}
</style><g id="GUIDES_64"/><g id="Layer_3"/><g id="Layer_2"><path class="st0" d="M20.1,36h3.4c0.3,0,0.6,0.3,0.6,0.6V58c0,1.1,0.9,2,2,2h7.8c1.1,0,2-0.9,2-2V36.6c0-0.3,0.3-0.6,0.6-0.6h5.6   c1,0,1.9-0.7,2-1.7l1.3-7.8c0.2-1.2-0.8-2.4-2-2.4h-6.6c-0.5,0-0.9-0.4-0.9-0.9v-5c0-1.3,0.7-2,2-2h5.9c1.1,0,2-0.9,2-2V6.2   c0-1.1-0.9-2-2-2h-7.1c-13,0-12.7,10.5-12.7,12v7.3c0,0.3-0.3,0.6-0.6,0.6h-3.4c-1.1,0-2,0.9-2,2v7.8C18.1,35.1,19,36,20.1,36z"/></g></svg>