<?xml version="1.0" ?><svg style="enable-background:new 0 0 64 64;" version="1.1" viewBox="0 0 64 64" xml:space="preserve" xmlns="http://www.w3.org/2000/svg" xmlns:xlink="http://www.w3.org/1999/xlink"><style type="text/css">
	.st0{}
</style><g id="GUIDES_64"/><g id="Layer_3"/><g id="Layer_2"><path class="st0" d="M33.4,56C46.2,55.2,56,44.2,56,31.4c0-2.6-2.1-4.7-4.7-4.7H34.1c-1.2,0-2.1,1-2.1,2.1v6.4c0,1.2,1,2.1,2.1,2.1   h8.1c0.9,0,1.5,1,1,1.7c-2.7,4.3-7.7,6.9-13.3,6.2c-6-0.8-10.8-5.7-11.4-11.7c-0.9-8,5.4-14.9,13.3-14.9c2.3,0,4.5,0.6,6.5,1.7   c1,0.5,2.2,0.4,3-0.4l4.3-4.2c1.1-1.1,0.9-2.9-0.4-3.8C41.1,9.3,36.2,7.8,31,8C18.3,8.5,8.1,19.1,8,31.8   C7.9,45.7,19.3,56.8,33.4,56z"/></g></svg>