<?xml version="1.0" encoding="iso-8859-1"?>
<!-- Generator: Adobe Illustrator 19.0.0, SVG Export Plug-In . SVG Version: 6.00 Build 0)  -->
<svg version="1.1" id="Layer_1" xmlns="http://www.w3.org/2000/svg" xmlns:xlink="http://www.w3.org/1999/xlink" x="0px" y="0px"
	 viewBox="0 0 320 320" style="enable-background:new 0 0 320 320;" xml:space="preserve">
<g id="XMLID_233_">
	<path id="XMLID_235_" d="M227.184,0h-45.466c-46.063,0-92.541,34.014-92.541,110.004c0,39.361,16.683,70.017,47.263,87.451
		L80.468,298.762c-2.653,4.791-2.722,10.221-0.185,14.525C82.76,317.49,87.288,320,92.395,320h28.311
		c6.432,0,11.448-3.109,13.852-8.555L187.037,208.8h3.83v98.407c0,6.935,5.852,12.793,12.778,12.793h24.735
		c7.767,0,13.191-5.424,13.191-13.19V14.002C241.572,5.758,235.656,0,227.184,0z M190.868,163.204h-6.756
		c-26.197,0-41.837-21.384-41.837-57.202c0-44.537,19.757-60.405,38.247-60.405h10.346V163.204z"/>
</g>
<g>
</g>
<g>
</g>
<g>
</g>
<g>
</g>
<g>
</g>
<g>
</g>
<g>
</g>
<g>
</g>
<g>
</g>
<g>
</g>
<g>
</g>
<g>
</g>
<g>
</g>
<g>
</g>
<g>
</g>
</svg>
