<?xml version="1.0" encoding="utf-8"?>
<!-- Generator: Adobe Illustrator 22.0.1, SVG Export Plug-In . SVG Version: 6.00 Build 0)  -->
<svg version="1.1" id="Слой_1" xmlns="http://www.w3.org/2000/svg" xmlns:xlink="http://www.w3.org/1999/xlink" x="0px" y="0px"
	 viewBox="0 0 577 119" style="enable-background:new 0 0 577 119;" xml:space="preserve">
<style type="text/css">
	.my0{fill:#FF5219;}
	.my1{fill:#CC4214;}
	.my3{fill:#ffffff;}
</style>
<g>
	<g>
		<path class="my3" d="M189.7,74.4c0-5.3-2.6-7.7-8.6-10.3l-4.2-1.9c-11.8-5.4-18.6-11.3-18.6-22.4c0-12,9.7-19.3,24.9-19.3
			c7.1,0,14,1.9,18.9,5.1l-0.8,14H192l-2.4-15.1l8.1,2.9v5c-5.3-3.9-9.1-5.9-14.3-5.9c-5.7,0-10.3,3.6-10.3,9.1
			c0,5.3,3.2,8.1,9.1,10.7l4.7,2.1c12.8,5.8,18,11.3,18,21.4c0,11.8-9,20.2-26.1,20.2c-7.5,0-16-1.7-21.7-5.2l0.6-14.9h9.3l2.6,16.2
			l-7.7-2.4v-4.8c6.3,3.4,10.5,5.2,16.9,5.2C185.9,84,189.7,79.8,189.7,74.4z"/>
		<path class="my3" d="M257.1,59.3c0,2.2-0.2,3.7-0.6,5.4h-39.1v-5.3h18.8c4.8,0,6-1.8,6-6.3c0-6.6-3.1-9.8-6.8-9.8c-4.2,0-8,4.5-8,19
			c0,12.2,6,17.7,13.5,17.7c5.4,0,9.1-2.3,12.1-5.4l3.5,3.2c-4.1,7.8-11.3,11.7-21,11.7c-14.6,0-24.9-9.5-24.9-25.7
			c0-16.7,12.9-25.7,25.8-25.7C249.6,38.2,257.1,47.2,257.1,59.3z"/>
		<path class="my3" d="M288.5,81.4c1.8,0,3.5-0.8,5.4-2.2l2.4,2.4c-2.6,5.1-7.3,8-14.6,8c-9.1,0-14.4-4-14.4-13.9c0-3.5,0.1-6.2,0.1-10.1v-19
			H261v-6l11.8-1.5l-5.7,4l6.3-17.4h10.2l-0.2,18v30.9C283.4,79.3,285.5,81.4,288.5,81.4z M293.9,39.7v6.9h-18.4v-6.9H293.9z"/>
		<path class="my3" d="M345,59.3c0,2.2-0.2,3.7-0.6,5.4h-39.1v-5.3h18.8c4.8,0,6-1.8,6-6.3c0-6.6-3.1-9.8-6.8-9.8c-4.2,0-8,4.5-8,19
			c0,12.2,6,17.7,13.5,17.7c5.4,0,9.1-2.3,12.1-5.4l3.5,3.2c-4.1,7.8-11.3,11.7-21,11.7c-14.6,0-24.9-9.5-24.9-25.7
			c0-16.7,12.9-25.7,25.8-25.7C337.6,38.2,345,47.2,345,59.3z"/>
		<path class="my3" d="M356.2,67v-5.9c0-5.5-0.1-7.5-0.3-11.5l-6.1-0.9v-3.9l19.7-6.6l1.7,1.1l0.9,12.3V67c0,6.2,0.1,16.5,0.3,21h-16.5
			C356.1,83.5,356.2,73.2,356.2,67z M350.6,83.4l9.6-2h10.5l9.6,2V88h-29.6V83.4z M364.8,53.8h7.5l-1.3,2.7
			c1.8-12.3,8.7-18.4,14.7-18.4c4.3,0,7.8,2.4,8.7,7.4c-0.2,5.2-3.1,8.2-7.1,8.2c-3,0-5.4-1.5-7.7-4.6l-2.9-3.8l4,1.5
			c-3.6,2.6-7.2,7.9-8.5,13.9l-7.3-0.7V53.8z"/>
		<path class="my3" d="M416.9,60.2c4.1-1.2,11.2-3.1,15.9-4.2v4.2c-4.7,1.2-10.1,2.7-13,4c-4.5,1.9-7.5,5.3-7.5,10c0,5,2.6,7.3,6,7.3
			c1.9,0,3.5-0.8,6.7-3.1l4-3l1,1.5l-4.2,4.6c-4.8,5.1-8,8.2-15.2,8.2c-7.7,0-13.1-4.6-13.1-12.8C397.5,69.6,401.4,64.6,416.9,60.2z
			 M424.5,79.8v-25c0-8.9-1.7-11.5-8.1-11.5c-2.4,0-5,0.3-9.4,1.4l6.9-3.9l-0.7,6.9c-0.3,6.7-3.5,9.3-7.3,9.3c-3.6,0-6-1.7-6.7-5
			c0.5-8.3,8.6-14,23-14c12.8,0,17.9,5.4,17.9,18.8v22.4c0,2,0.8,2.9,2.3,2.9c1.1,0,1.9-0.5,3-2.2l2.6,1.8c-2.4,5.5-6,7.6-12,7.6
			C429.1,89.5,425.3,85.9,424.5,79.8z"/>
		<path class="my3" d="M476.1,81.4c1.8,0,3.5-0.8,5.4-2.2l2.4,2.4c-2.6,5.1-7.3,8-14.6,8c-9.1,0-14.4-4-14.4-13.9c0-3.5,0.1-6.2,0.1-10.1v-19
			h-6.5v-6l11.8-1.5l-5.7,4l6.3-17.4h10.2l-0.2,18v30.9C471,79.3,473.2,81.4,476.1,81.4z M481.5,39.7v6.9h-18.4v-6.9H481.5z"/>
		<path class="my3" d="M486.2,63.7c0-15.4,11.1-25.5,25.4-25.5c14.3,0,25.4,9.9,25.4,25.5s-9.9,25.9-25.4,25.9C496,89.6,486.2,79,486.2,63.7z
			 M520.1,63.9c0-14.2-2.9-20.5-8.5-20.5c-5.7,0-8.5,6.3-8.5,20.5c0,14.3,2.8,20.4,8.5,20.4C517.2,84.3,520.1,78.2,520.1,63.9z"/>
		<path class="my3" d="M548.2,67v-5.9c0-5.5-0.1-7.5-0.3-11.5l-6.1-0.9v-3.9l19.7-6.6l1.7,1.1l0.9,12.3V67c0,6.2,0.1,16.5,0.3,21h-16.5
			C548.1,83.5,548.2,73.2,548.2,67z M542.6,83.4l9.6-2h10.5l9.6,2V88h-29.6V83.4z M556.8,53.8h7.5l-1.3,2.7
			c1.8-12.3,8.7-18.4,14.7-18.4c4.3,0,7.8,2.4,8.7,7.4c-0.2,5.2-3.1,8.2-7.1,8.2c-3,0-5.4-1.5-7.7-4.6l-2.9-3.8l4,1.5
			c-3.6,2.6-7.2,7.9-8.5,13.9l-7.3-0.7V53.8z"/>
	</g>
</g>
<g>
	<path class="my0" d="M19.3-0.1C19.3-0.1,19.3-0.1,19.3-0.1c-1.2,0-2.3,0.5-3.2,1.3c-0.9,0.9-1.3,2-1.3,3.2V72c0,2.5,2,4.5,4.5,4.5
		c10.5,0,28.1,2.2,40.2,14.9V20.7c0-0.8-0.2-1.6-0.6-2.3C48.9,2.4,29.8-0.1,19.3-0.1z"/>
	<path class="my0" d="M111.2,72V4.4c0-1.2-0.5-2.3-1.3-3.2c-0.8-0.8-2-1.3-3.2-1.3c0,0,0,0,0,0c-10.5,0-29.6,2.5-39.6,18.5
		c-0.4,0.7-0.6,1.4-0.6,2.3v70.8c12.1-12.7,29.7-14.9,40.2-14.9C109.2,76.5,111.2,74.5,111.2,72z"/>
	<path class="my1" d="M121.5,15.5h-3.3V72c0,6.3-5.2,11.5-11.5,11.5c-8.9,0-23.6,1.8-34,11.6c18-4.4,36.9-1.5,47.7,0.9
		c1.3,0.3,2.7,0,3.8-0.9c1.1-0.9,1.7-2.1,1.7-3.5V20C126,17.5,124,15.5,121.5,15.5z"/>
	<path class="my1" d="M7.8,72V15.5H4.5C2,15.5,0,17.5,0,20v71.7c0,1.4,0.6,2.7,1.7,3.5c1.1,0.9,2.5,1.2,3.8,0.9
		c10.8-2.5,29.8-5.3,47.7-0.9c-10.4-9.8-25.1-11.6-34-11.6C12.9,83.5,7.8,78.4,7.8,72z"/>
</g>
</svg>
